<?xml version="1.0" standalone="no"?>
<!DOCTYPE svg PUBLIC "-//W3C//DTD SVG 20010904//EN"
 "http://www.w3.org/TR/2001/REC-SVG-20010904/DTD/svg10.dtd">
<svg version="1.0" xmlns="http://www.w3.org/2000/svg"
 width="256.000000pt" height="256.000000pt" viewBox="0 0 256.000000 256.000000"
 preserveAspectRatio="xMidYMid meet" >

<g transform="translate(0.000000,256.000000) scale(0.100000,-0.100000)"
fill="#579ad6" stroke="none">
<path d="M501 2364 c-60 -30 -102 -82 -120 -146 -9 -32 -11 -283 -9 -983 l3
-940 22 -41 c12 -22 38 -55 57 -72 71 -62 69 -62 826 -62 742 0 742 0 812 54
19 14 48 50 64 78 l29 53 2 697 3 697 -162 188 c-89 104 -222 259 -297 346
l-135 157 -521 0 -521 0 -53 -26z m1089 -267 c0 -202 0 -204 27 -258 34 -66
94 -113 163 -128 28 -6 109 -11 181 -11 l130 0 -3 -692 -3 -693 -24 -34 c-45
-63 -21 -61 -788 -61 -679 0 -699 1 -731 20 -18 11 -41 34 -52 52 -20 32 -20
53 -20 968 0 920 0 936 20 968 12 19 38 41 63 52 40 18 71 20 540 20 l497 0 0
-203z m249 -138 c66 -81 121 -149 121 -153 0 -3 -35 -6 -77 -6 -92 0 -136 18
-170 69 -21 30 -23 46 -23 150 0 97 2 113 14 101 7 -8 68 -81 135 -161z"/>
<path d="M850 1415 l0 -55 430 0 430 0 0 55 0 55 -430 0 -430 0 0 -55z"/>
<path d="M850 1170 l0 -60 430 0 430 0 0 60 0 60 -430 0 -430 0 0 -60z"/>
<path d="M850 925 l0 -55 430 0 430 0 0 55 0 55 -430 0 -430 0 0 -55z"/>
<path d="M850 680 l0 -60 430 0 430 0 0 60 0 60 -430 0 -430 0 0 -60z"/>
</g>

</svg>
